<?xml version="1.0" standalone="no"?>
<!DOCTYPE svg PUBLIC "-//W3C//DTD SVG 20010904//EN"
 "http://www.w3.org/TR/2001/REC-SVG-20010904/DTD/svg10.dtd">
<svg version="1.0" xmlns="http://www.w3.org/2000/svg"
 width="244.000000pt" height="244.000000pt" viewBox="0 0 244.000000 244.000000"
 preserveAspectRatio="xMidYMid meet">
<metadata>
Created by potrace 1.11, written by Peter Selinger 2001-2013
</metadata>
<g transform="translate(0.000000,244.000000) scale(0.100000,-0.100000)"
fill="#000000" stroke="none">
<path d="M2 2143 l-1 -253 253 0 253 0 0 253 0 253 -252 0 -253 1 0 -254z"/>
<path d="M644 2143 l0 -253 251 0 251 0 1 250 c0 177 -3 250 -11 252 -6 1
-119 2 -252 3 l-240 1 0 -253z"/>
<path d="M1287 2156 c0 -133 2 -247 2 -253 1 -10 58 -13 251 -13 l250 0 -2
253 -3 252 -250 1 -250 0 2 -240z"/>
<path d="M1924 2146 l1 -251 253 -3 252 -2 0 253 0 253 -253 0 -253 1 0 -251z"/>
<path d="M1 1523 l0 -253 253 0 253 0 -1 253 -1 252 -252 1 -252 1 0 -254z"/>
<path d="M644 1526 l1 -251 251 -3 251 -2 0 253 0 254 -252 0 -251 0 0 -251z"/>
<path d="M1289 1759 c0 -11 -1 -120 -1 -244 0 -124 1 -229 1 -235 1 -6 92 -10
251 -10 l250 0 0 253 0 254 -250 0 c-237 0 -250 -1 -251 -18z"/>
<path d="M1924 1523 l0 -253 253 0 253 0 0 253 0 254 -253 0 -253 0 0 -254z"/>
<path d="M23 1162 l-22 -3 2 -557 2 -557 570 -2 570 -2 0 554 c0 304 -3 557
-7 560 -7 7 -1070 13 -1115 7z"/>
<path d="M1289 1150 c-1 -8 -2 -120 -2 -248 -2 -199 0 -235 13 -241 8 -3 121
-6 250 -5 l235 0 3 252 2 252 -62 0 c-35 1 -147 2 -251 3 -160 2 -187 0 -188
-13z"/>
<path d="M1970 1160 l-45 -5 -1 -250 -1 -250 251 1 251 0 3 252 2 252 -82 0
c-46 1 -139 2 -208 3 -69 1 -145 0 -170 -3z"/>
<path d="M1288 536 c-3 -9 -2 -468 1 -488 1 -4 114 -7 251 -7 l250 0 0 253 0
253 -250 0 c-169 0 -250 -4 -252 -11z"/>
<path d="M1924 294 l0 -253 253 0 253 0 0 253 0 253 -253 0 -253 -1 0 -252z"/>
</g>
</svg>
